<mxfile host="app.diagrams.net" agent="Mozilla/5.0 (Windows NT 10.0; Win64; x64) AppleWebKit/537.36 (KHTML, like Gecko) Chrome/126.0.0.0 Safari/537.36 Edg/126.0.0.0" version="24.7.6">
  <diagram id="C5RBs43oDa-KdzZeNtuy" name="Page-1">
    <mxGraphModel dx="2328" dy="835" grid="1" gridSize="10" guides="1" tooltips="1" connect="1" arrows="1" fold="1" page="1" pageScale="1" pageWidth="827" pageHeight="1169" math="0" shadow="0">
      <root>
        <mxCell id="WIyWlLk6GJQsqaUBKTNV-0" />
        <mxCell id="WIyWlLk6GJQsqaUBKTNV-1" parent="WIyWlLk6GJQsqaUBKTNV-0" />
        <mxCell id="RTll7HVlnqoNrbP3d9dA-5" value="" style="edgeStyle=orthogonalEdgeStyle;rounded=0;orthogonalLoop=1;jettySize=auto;html=1;" edge="1" parent="WIyWlLk6GJQsqaUBKTNV-1" source="RTll7HVlnqoNrbP3d9dA-0" target="RTll7HVlnqoNrbP3d9dA-4">
          <mxGeometry relative="1" as="geometry" />
        </mxCell>
        <mxCell id="RTll7HVlnqoNrbP3d9dA-0" value="根据航线查询&lt;span style=&quot;background-color: initial;&quot;&gt;上线的航司集合&lt;/span&gt;" style="rounded=1;whiteSpace=wrap;html=1;fontSize=12;glass=0;strokeWidth=1;shadow=0;" vertex="1" parent="WIyWlLk6GJQsqaUBKTNV-1">
          <mxGeometry x="50" y="190" width="120" height="40" as="geometry" />
        </mxCell>
        <mxCell id="RTll7HVlnqoNrbP3d9dA-25" value="" style="edgeStyle=orthogonalEdgeStyle;rounded=0;orthogonalLoop=1;jettySize=auto;html=1;fillColor=#f8cecc;strokeColor=#b85450;" edge="1" parent="WIyWlLk6GJQsqaUBKTNV-1" source="RTll7HVlnqoNrbP3d9dA-4" target="RTll7HVlnqoNrbP3d9dA-19">
          <mxGeometry relative="1" as="geometry" />
        </mxCell>
        <mxCell id="RTll7HVlnqoNrbP3d9dA-83" value="Y" style="edgeLabel;html=1;align=center;verticalAlign=middle;resizable=0;points=[];" vertex="1" connectable="0" parent="RTll7HVlnqoNrbP3d9dA-25">
          <mxGeometry x="-0.4" y="-1" relative="1" as="geometry">
            <mxPoint as="offset" />
          </mxGeometry>
        </mxCell>
        <mxCell id="RTll7HVlnqoNrbP3d9dA-80" style="edgeStyle=orthogonalEdgeStyle;rounded=0;orthogonalLoop=1;jettySize=auto;html=1;entryX=0;entryY=0.5;entryDx=0;entryDy=0;exitX=0;exitY=0.5;exitDx=0;exitDy=0;" edge="1" parent="WIyWlLk6GJQsqaUBKTNV-1" source="RTll7HVlnqoNrbP3d9dA-4" target="RTll7HVlnqoNrbP3d9dA-68">
          <mxGeometry relative="1" as="geometry">
            <Array as="points">
              <mxPoint x="-340" y="320" />
              <mxPoint x="-340" y="1960" />
            </Array>
          </mxGeometry>
        </mxCell>
        <mxCell id="RTll7HVlnqoNrbP3d9dA-81" value="结束循环" style="edgeLabel;html=1;align=center;verticalAlign=middle;resizable=0;points=[];" vertex="1" connectable="0" parent="RTll7HVlnqoNrbP3d9dA-80">
          <mxGeometry x="-0.0156" y="1" relative="1" as="geometry">
            <mxPoint as="offset" />
          </mxGeometry>
        </mxCell>
        <mxCell id="RTll7HVlnqoNrbP3d9dA-82" value="N" style="edgeLabel;html=1;align=center;verticalAlign=middle;resizable=0;points=[];" vertex="1" connectable="0" parent="RTll7HVlnqoNrbP3d9dA-80">
          <mxGeometry x="-0.8645" relative="1" as="geometry">
            <mxPoint x="-1" as="offset" />
          </mxGeometry>
        </mxCell>
        <mxCell id="RTll7HVlnqoNrbP3d9dA-4" value="有航司" style="rhombus;whiteSpace=wrap;html=1;rounded=1;glass=0;strokeWidth=1;shadow=0;" vertex="1" parent="WIyWlLk6GJQsqaUBKTNV-1">
          <mxGeometry x="70" y="280" width="80" height="80" as="geometry" />
        </mxCell>
        <mxCell id="RTll7HVlnqoNrbP3d9dA-21" value="Y" style="edgeStyle=orthogonalEdgeStyle;rounded=0;orthogonalLoop=1;jettySize=auto;html=1;" edge="1" parent="WIyWlLk6GJQsqaUBKTNV-1" source="RTll7HVlnqoNrbP3d9dA-19" target="RTll7HVlnqoNrbP3d9dA-20">
          <mxGeometry relative="1" as="geometry" />
        </mxCell>
        <mxCell id="RTll7HVlnqoNrbP3d9dA-29" value="" style="edgeStyle=orthogonalEdgeStyle;rounded=0;orthogonalLoop=1;jettySize=auto;html=1;" edge="1" parent="WIyWlLk6GJQsqaUBKTNV-1" source="RTll7HVlnqoNrbP3d9dA-19" target="RTll7HVlnqoNrbP3d9dA-28">
          <mxGeometry relative="1" as="geometry" />
        </mxCell>
        <mxCell id="RTll7HVlnqoNrbP3d9dA-46" value="N" style="edgeLabel;html=1;align=center;verticalAlign=middle;resizable=0;points=[];" vertex="1" connectable="0" parent="RTll7HVlnqoNrbP3d9dA-29">
          <mxGeometry x="-0.1778" relative="1" as="geometry">
            <mxPoint as="offset" />
          </mxGeometry>
        </mxCell>
        <mxCell id="RTll7HVlnqoNrbP3d9dA-19" value="是否有包机数据" style="rhombus;whiteSpace=wrap;html=1;rounded=1;glass=0;strokeWidth=1;shadow=0;" vertex="1" parent="WIyWlLk6GJQsqaUBKTNV-1">
          <mxGeometry x="70" y="420" width="80" height="80" as="geometry" />
        </mxCell>
        <mxCell id="RTll7HVlnqoNrbP3d9dA-87" style="edgeStyle=orthogonalEdgeStyle;rounded=0;orthogonalLoop=1;jettySize=auto;html=1;entryX=0;entryY=0.5;entryDx=0;entryDy=0;" edge="1" parent="WIyWlLk6GJQsqaUBKTNV-1" source="RTll7HVlnqoNrbP3d9dA-20" target="RTll7HVlnqoNrbP3d9dA-72">
          <mxGeometry relative="1" as="geometry">
            <Array as="points">
              <mxPoint x="-130" y="1850" />
            </Array>
          </mxGeometry>
        </mxCell>
        <mxCell id="RTll7HVlnqoNrbP3d9dA-20" value="处理包机数据并添加到原始数据集合" style="whiteSpace=wrap;html=1;rounded=1;glass=0;strokeWidth=1;shadow=0;" vertex="1" parent="WIyWlLk6GJQsqaUBKTNV-1">
          <mxGeometry x="-190" y="590" width="120" height="60" as="geometry" />
        </mxCell>
        <mxCell id="RTll7HVlnqoNrbP3d9dA-31" value="" style="edgeStyle=orthogonalEdgeStyle;rounded=0;orthogonalLoop=1;jettySize=auto;html=1;" edge="1" parent="WIyWlLk6GJQsqaUBKTNV-1" source="RTll7HVlnqoNrbP3d9dA-28" target="RTll7HVlnqoNrbP3d9dA-30">
          <mxGeometry relative="1" as="geometry" />
        </mxCell>
        <mxCell id="RTll7HVlnqoNrbP3d9dA-28" value="处理单程航班数据" style="whiteSpace=wrap;html=1;rounded=1;glass=0;strokeWidth=1;shadow=0;" vertex="1" parent="WIyWlLk6GJQsqaUBKTNV-1">
          <mxGeometry x="160" y="590" width="120" height="60" as="geometry" />
        </mxCell>
        <mxCell id="RTll7HVlnqoNrbP3d9dA-33" value="" style="edgeStyle=orthogonalEdgeStyle;rounded=0;orthogonalLoop=1;jettySize=auto;html=1;" edge="1" parent="WIyWlLk6GJQsqaUBKTNV-1" source="RTll7HVlnqoNrbP3d9dA-30" target="RTll7HVlnqoNrbP3d9dA-32">
          <mxGeometry relative="1" as="geometry" />
        </mxCell>
        <mxCell id="RTll7HVlnqoNrbP3d9dA-30" value="根据航司、产品类型全局政策过滤投放天数限制" style="whiteSpace=wrap;html=1;rounded=1;glass=0;strokeWidth=1;shadow=0;" vertex="1" parent="WIyWlLk6GJQsqaUBKTNV-1">
          <mxGeometry x="160" y="750" width="120" height="60" as="geometry" />
        </mxCell>
        <mxCell id="RTll7HVlnqoNrbP3d9dA-35" value="" style="edgeStyle=orthogonalEdgeStyle;rounded=0;orthogonalLoop=1;jettySize=auto;html=1;" edge="1" parent="WIyWlLk6GJQsqaUBKTNV-1" source="RTll7HVlnqoNrbP3d9dA-32" target="RTll7HVlnqoNrbP3d9dA-34">
          <mxGeometry relative="1" as="geometry" />
        </mxCell>
        <mxCell id="RTll7HVlnqoNrbP3d9dA-32" value="redis 获取原始数据" style="whiteSpace=wrap;html=1;rounded=1;glass=0;strokeWidth=1;shadow=0;" vertex="1" parent="WIyWlLk6GJQsqaUBKTNV-1">
          <mxGeometry x="160" y="850" width="120" height="60" as="geometry" />
        </mxCell>
        <mxCell id="RTll7HVlnqoNrbP3d9dA-37" value="" style="edgeStyle=orthogonalEdgeStyle;rounded=0;orthogonalLoop=1;jettySize=auto;html=1;fillColor=#ffe6cc;strokeColor=#d79b00;" edge="1" parent="WIyWlLk6GJQsqaUBKTNV-1" source="RTll7HVlnqoNrbP3d9dA-34" target="RTll7HVlnqoNrbP3d9dA-36">
          <mxGeometry relative="1" as="geometry" />
        </mxCell>
        <mxCell id="RTll7HVlnqoNrbP3d9dA-34" value="有数据" style="rhombus;whiteSpace=wrap;html=1;rounded=1;glass=0;strokeWidth=1;shadow=0;" vertex="1" parent="WIyWlLk6GJQsqaUBKTNV-1">
          <mxGeometry x="180" y="980" width="80" height="80" as="geometry" />
        </mxCell>
        <mxCell id="RTll7HVlnqoNrbP3d9dA-40" style="edgeStyle=orthogonalEdgeStyle;rounded=0;orthogonalLoop=1;jettySize=auto;html=1;entryX=0.5;entryY=0;entryDx=0;entryDy=0;fillColor=#ffe6cc;strokeColor=#d79b00;" edge="1" parent="WIyWlLk6GJQsqaUBKTNV-1" source="RTll7HVlnqoNrbP3d9dA-36" target="RTll7HVlnqoNrbP3d9dA-34">
          <mxGeometry relative="1" as="geometry">
            <Array as="points">
              <mxPoint x="80" y="1180" />
              <mxPoint x="80" y="960" />
              <mxPoint x="220" y="960" />
            </Array>
          </mxGeometry>
        </mxCell>
        <mxCell id="RTll7HVlnqoNrbP3d9dA-44" value="Text" style="edgeLabel;html=1;align=center;verticalAlign=middle;resizable=0;points=[];" vertex="1" connectable="0" parent="RTll7HVlnqoNrbP3d9dA-40">
          <mxGeometry x="-0.1042" y="-2" relative="1" as="geometry">
            <mxPoint as="offset" />
          </mxGeometry>
        </mxCell>
        <mxCell id="RTll7HVlnqoNrbP3d9dA-45" value="过滤禁售时限、超过缓存时限航班" style="edgeLabel;html=1;align=center;verticalAlign=middle;resizable=0;points=[];" vertex="1" connectable="0" parent="RTll7HVlnqoNrbP3d9dA-40">
          <mxGeometry x="-0.1125" y="-3" relative="1" as="geometry">
            <mxPoint as="offset" />
          </mxGeometry>
        </mxCell>
        <mxCell id="RTll7HVlnqoNrbP3d9dA-48" value="" style="edgeStyle=orthogonalEdgeStyle;rounded=0;orthogonalLoop=1;jettySize=auto;html=1;" edge="1" parent="WIyWlLk6GJQsqaUBKTNV-1" source="RTll7HVlnqoNrbP3d9dA-36" target="RTll7HVlnqoNrbP3d9dA-47">
          <mxGeometry relative="1" as="geometry" />
        </mxCell>
        <mxCell id="RTll7HVlnqoNrbP3d9dA-36" value="有效数据" style="rhombus;whiteSpace=wrap;html=1;rounded=1;glass=0;strokeWidth=1;shadow=0;" vertex="1" parent="WIyWlLk6GJQsqaUBKTNV-1">
          <mxGeometry x="180" y="1140" width="80" height="80" as="geometry" />
        </mxCell>
        <mxCell id="RTll7HVlnqoNrbP3d9dA-62" value="" style="edgeStyle=orthogonalEdgeStyle;rounded=0;orthogonalLoop=1;jettySize=auto;html=1;" edge="1" parent="WIyWlLk6GJQsqaUBKTNV-1" source="RTll7HVlnqoNrbP3d9dA-38" target="RTll7HVlnqoNrbP3d9dA-61">
          <mxGeometry relative="1" as="geometry" />
        </mxCell>
        <mxCell id="RTll7HVlnqoNrbP3d9dA-38" value="根据形参类型&lt;div&gt;添加到该程航班集合&lt;/div&gt;" style="whiteSpace=wrap;html=1;rounded=1;glass=0;strokeWidth=1;shadow=0;" vertex="1" parent="WIyWlLk6GJQsqaUBKTNV-1">
          <mxGeometry x="160" y="1590" width="120" height="60" as="geometry" />
        </mxCell>
        <mxCell id="RTll7HVlnqoNrbP3d9dA-50" value="" style="edgeStyle=orthogonalEdgeStyle;rounded=0;orthogonalLoop=1;jettySize=auto;html=1;" edge="1" parent="WIyWlLk6GJQsqaUBKTNV-1" source="RTll7HVlnqoNrbP3d9dA-47" target="RTll7HVlnqoNrbP3d9dA-49">
          <mxGeometry relative="1" as="geometry" />
        </mxCell>
        <mxCell id="RTll7HVlnqoNrbP3d9dA-51" value="直飞" style="edgeLabel;html=1;align=center;verticalAlign=middle;resizable=0;points=[];" vertex="1" connectable="0" parent="RTll7HVlnqoNrbP3d9dA-50">
          <mxGeometry x="-0.1778" y="3" relative="1" as="geometry">
            <mxPoint as="offset" />
          </mxGeometry>
        </mxCell>
        <mxCell id="RTll7HVlnqoNrbP3d9dA-53" value="" style="edgeStyle=orthogonalEdgeStyle;rounded=0;orthogonalLoop=1;jettySize=auto;html=1;entryX=0.5;entryY=0;entryDx=0;entryDy=0;" edge="1" parent="WIyWlLk6GJQsqaUBKTNV-1" source="RTll7HVlnqoNrbP3d9dA-47" target="RTll7HVlnqoNrbP3d9dA-56">
          <mxGeometry relative="1" as="geometry">
            <mxPoint x="360" y="1370" as="targetPoint" />
          </mxGeometry>
        </mxCell>
        <mxCell id="RTll7HVlnqoNrbP3d9dA-54" value="中转" style="edgeLabel;html=1;align=center;verticalAlign=middle;resizable=0;points=[];" vertex="1" connectable="0" parent="RTll7HVlnqoNrbP3d9dA-53">
          <mxGeometry x="-0.3667" y="-2" relative="1" as="geometry">
            <mxPoint as="offset" />
          </mxGeometry>
        </mxCell>
        <mxCell id="RTll7HVlnqoNrbP3d9dA-47" value="判断直飞" style="rhombus;whiteSpace=wrap;html=1;rounded=1;glass=0;strokeWidth=1;shadow=0;" vertex="1" parent="WIyWlLk6GJQsqaUBKTNV-1">
          <mxGeometry x="180" y="1250" width="80" height="80" as="geometry" />
        </mxCell>
        <mxCell id="RTll7HVlnqoNrbP3d9dA-55" style="edgeStyle=orthogonalEdgeStyle;rounded=0;orthogonalLoop=1;jettySize=auto;html=1;entryX=0;entryY=0.5;entryDx=0;entryDy=0;" edge="1" parent="WIyWlLk6GJQsqaUBKTNV-1" source="RTll7HVlnqoNrbP3d9dA-49" target="RTll7HVlnqoNrbP3d9dA-38">
          <mxGeometry relative="1" as="geometry" />
        </mxCell>
        <mxCell id="RTll7HVlnqoNrbP3d9dA-49" value="包装航班数据" style="whiteSpace=wrap;html=1;rounded=1;glass=0;strokeWidth=1;shadow=0;" vertex="1" parent="WIyWlLk6GJQsqaUBKTNV-1">
          <mxGeometry x="40" y="1370" width="120" height="60" as="geometry" />
        </mxCell>
        <mxCell id="RTll7HVlnqoNrbP3d9dA-58" value="Y" style="edgeStyle=orthogonalEdgeStyle;rounded=0;orthogonalLoop=1;jettySize=auto;html=1;fillColor=#ffe6cc;strokeColor=#d79b00;" edge="1" parent="WIyWlLk6GJQsqaUBKTNV-1" source="RTll7HVlnqoNrbP3d9dA-56" target="RTll7HVlnqoNrbP3d9dA-57">
          <mxGeometry relative="1" as="geometry" />
        </mxCell>
        <mxCell id="RTll7HVlnqoNrbP3d9dA-56" value="有航段" style="rhombus;whiteSpace=wrap;html=1;rounded=1;glass=0;strokeWidth=1;shadow=0;" vertex="1" parent="WIyWlLk6GJQsqaUBKTNV-1">
          <mxGeometry x="310" y="1360" width="80" height="80" as="geometry" />
        </mxCell>
        <mxCell id="RTll7HVlnqoNrbP3d9dA-59" style="edgeStyle=orthogonalEdgeStyle;rounded=0;orthogonalLoop=1;jettySize=auto;html=1;entryX=1;entryY=0.5;entryDx=0;entryDy=0;exitX=0.5;exitY=1;exitDx=0;exitDy=0;fillColor=#ffe6cc;strokeColor=#d79b00;" edge="1" parent="WIyWlLk6GJQsqaUBKTNV-1" source="RTll7HVlnqoNrbP3d9dA-57" target="RTll7HVlnqoNrbP3d9dA-38">
          <mxGeometry relative="1" as="geometry">
            <Array as="points">
              <mxPoint x="350" y="1620" />
            </Array>
          </mxGeometry>
        </mxCell>
        <mxCell id="RTll7HVlnqoNrbP3d9dA-57" value="包装航班数据" style="whiteSpace=wrap;html=1;rounded=1;glass=0;strokeWidth=1;shadow=0;" vertex="1" parent="WIyWlLk6GJQsqaUBKTNV-1">
          <mxGeometry x="290" y="1490" width="120" height="60" as="geometry" />
        </mxCell>
        <mxCell id="RTll7HVlnqoNrbP3d9dA-60" style="edgeStyle=orthogonalEdgeStyle;rounded=0;orthogonalLoop=1;jettySize=auto;html=1;entryX=0.5;entryY=0;entryDx=0;entryDy=0;fillColor=#ffe6cc;strokeColor=#d79b00;" edge="1" parent="WIyWlLk6GJQsqaUBKTNV-1" source="RTll7HVlnqoNrbP3d9dA-38" target="RTll7HVlnqoNrbP3d9dA-56">
          <mxGeometry relative="1" as="geometry">
            <Array as="points">
              <mxPoint x="220" y="1340" />
              <mxPoint x="350" y="1340" />
            </Array>
          </mxGeometry>
        </mxCell>
        <mxCell id="RTll7HVlnqoNrbP3d9dA-63" style="edgeStyle=orthogonalEdgeStyle;rounded=0;orthogonalLoop=1;jettySize=auto;html=1;entryX=0;entryY=0.5;entryDx=0;entryDy=0;" edge="1" parent="WIyWlLk6GJQsqaUBKTNV-1" source="RTll7HVlnqoNrbP3d9dA-61" target="RTll7HVlnqoNrbP3d9dA-30">
          <mxGeometry relative="1" as="geometry">
            <Array as="points">
              <mxPoint x="-40" y="1730" />
              <mxPoint x="-40" y="780" />
            </Array>
          </mxGeometry>
        </mxCell>
        <mxCell id="RTll7HVlnqoNrbP3d9dA-64" value="Y" style="edgeLabel;html=1;align=center;verticalAlign=middle;resizable=0;points=[];" vertex="1" connectable="0" parent="RTll7HVlnqoNrbP3d9dA-63">
          <mxGeometry x="-0.8743" y="1" relative="1" as="geometry">
            <mxPoint as="offset" />
          </mxGeometry>
        </mxCell>
        <mxCell id="RTll7HVlnqoNrbP3d9dA-85" value="" style="edgeStyle=orthogonalEdgeStyle;rounded=0;orthogonalLoop=1;jettySize=auto;html=1;" edge="1" parent="WIyWlLk6GJQsqaUBKTNV-1" source="RTll7HVlnqoNrbP3d9dA-61" target="RTll7HVlnqoNrbP3d9dA-72">
          <mxGeometry relative="1" as="geometry" />
        </mxCell>
        <mxCell id="RTll7HVlnqoNrbP3d9dA-61" value="往返" style="rhombus;whiteSpace=wrap;html=1;rounded=1;glass=0;strokeWidth=1;shadow=0;" vertex="1" parent="WIyWlLk6GJQsqaUBKTNV-1">
          <mxGeometry x="180" y="1690" width="80" height="80" as="geometry" />
        </mxCell>
        <mxCell id="RTll7HVlnqoNrbP3d9dA-74" style="edgeStyle=orthogonalEdgeStyle;rounded=0;orthogonalLoop=1;jettySize=auto;html=1;entryX=0.5;entryY=0;entryDx=0;entryDy=0;fillColor=#f8cecc;strokeColor=#b85450;" edge="1" parent="WIyWlLk6GJQsqaUBKTNV-1" source="RTll7HVlnqoNrbP3d9dA-77" target="RTll7HVlnqoNrbP3d9dA-4">
          <mxGeometry relative="1" as="geometry">
            <Array as="points">
              <mxPoint x="630" y="260" />
              <mxPoint x="110" y="260" />
            </Array>
          </mxGeometry>
        </mxCell>
        <mxCell id="RTll7HVlnqoNrbP3d9dA-79" style="edgeStyle=orthogonalEdgeStyle;rounded=0;orthogonalLoop=1;jettySize=auto;html=1;entryX=0.5;entryY=1;entryDx=0;entryDy=0;fillColor=#f8cecc;strokeColor=#b85450;" edge="1" parent="WIyWlLk6GJQsqaUBKTNV-1" source="RTll7HVlnqoNrbP3d9dA-68" target="RTll7HVlnqoNrbP3d9dA-77">
          <mxGeometry relative="1" as="geometry" />
        </mxCell>
        <mxCell id="RTll7HVlnqoNrbP3d9dA-89" value="" style="edgeStyle=orthogonalEdgeStyle;rounded=0;orthogonalLoop=1;jettySize=auto;html=1;" edge="1" parent="WIyWlLk6GJQsqaUBKTNV-1" source="RTll7HVlnqoNrbP3d9dA-68" target="RTll7HVlnqoNrbP3d9dA-88">
          <mxGeometry relative="1" as="geometry" />
        </mxCell>
        <mxCell id="RTll7HVlnqoNrbP3d9dA-68" value="结束航司循环" style="whiteSpace=wrap;html=1;rounded=1;glass=0;strokeWidth=1;shadow=0;" vertex="1" parent="WIyWlLk6GJQsqaUBKTNV-1">
          <mxGeometry x="160" y="1930" width="120" height="60" as="geometry" />
        </mxCell>
        <mxCell id="RTll7HVlnqoNrbP3d9dA-86" value="" style="edgeStyle=orthogonalEdgeStyle;rounded=0;orthogonalLoop=1;jettySize=auto;html=1;" edge="1" parent="WIyWlLk6GJQsqaUBKTNV-1" source="RTll7HVlnqoNrbP3d9dA-72" target="RTll7HVlnqoNrbP3d9dA-68">
          <mxGeometry relative="1" as="geometry" />
        </mxCell>
        <mxCell id="RTll7HVlnqoNrbP3d9dA-72" value="组装去程、回程数据&lt;div&gt;dto&lt;/div&gt;" style="whiteSpace=wrap;html=1;rounded=1;glass=0;strokeWidth=1;shadow=0;" vertex="1" parent="WIyWlLk6GJQsqaUBKTNV-1">
          <mxGeometry x="160" y="1820" width="120" height="60" as="geometry" />
        </mxCell>
        <mxCell id="RTll7HVlnqoNrbP3d9dA-76" value="流程复用" style="rounded=1;whiteSpace=wrap;html=1;" vertex="1" parent="WIyWlLk6GJQsqaUBKTNV-1">
          <mxGeometry x="-100" y="1180" width="120" height="60" as="geometry" />
        </mxCell>
        <mxCell id="RTll7HVlnqoNrbP3d9dA-77" value="循环航司" style="rounded=1;whiteSpace=wrap;html=1;" vertex="1" parent="WIyWlLk6GJQsqaUBKTNV-1">
          <mxGeometry x="570" y="1210" width="120" height="60" as="geometry" />
        </mxCell>
        <mxCell id="RTll7HVlnqoNrbP3d9dA-88" value="结束" style="ellipse;whiteSpace=wrap;html=1;" vertex="1" parent="WIyWlLk6GJQsqaUBKTNV-1">
          <mxGeometry x="160" y="2050" width="120" height="80" as="geometry" />
        </mxCell>
        <mxCell id="RTll7HVlnqoNrbP3d9dA-91" value="" style="edgeStyle=orthogonalEdgeStyle;rounded=0;orthogonalLoop=1;jettySize=auto;html=1;" edge="1" parent="WIyWlLk6GJQsqaUBKTNV-1" source="RTll7HVlnqoNrbP3d9dA-90" target="RTll7HVlnqoNrbP3d9dA-0">
          <mxGeometry relative="1" as="geometry" />
        </mxCell>
        <mxCell id="RTll7HVlnqoNrbP3d9dA-90" value="查询航班" style="ellipse;whiteSpace=wrap;html=1;" vertex="1" parent="WIyWlLk6GJQsqaUBKTNV-1">
          <mxGeometry x="50" y="40" width="120" height="80" as="geometry" />
        </mxCell>
      </root>
    </mxGraphModel>
  </diagram>
</mxfile>
